<svg version="1.1" viewBox="0.000000 0.000000 96.000000 96.000000" xmlns="http://www.w3.org/2000/svg" xmlns:xlink="http://www.w3.org/1999/xlink" id="Icons_Research" overflow="hidden"><path d=" M 72.500000 63.099998 C 70.900002 61.500000 68.500000 60.700001 66.300003 61.200001 L 61.799999 56.799999 C 65.800003 51.599998 68.000000 45.200001 68.000000 38.599998 C 68.099998 21.900000 54.599998 8.400000 38.000000 8.300000 C 21.400000 8.200000 7.900000 21.700001 7.800000 38.299999 C 7.700000 54.900002 21.200001 68.400002 37.799999 68.500000 C 44.400002 68.500000 50.900002 66.300003 56.200001 62.299999 L 60.599998 66.699997 C 60.200001 69.000000 60.900002 71.300003 62.500000 73.000000 L 75.000000 85.500000 C 77.699997 88.199997 82.199997 88.199997 84.900002 85.500000 C 87.599998 82.800003 87.599998 78.300003 84.900002 75.599998 L 72.500000 63.099998 Z M 38.000000 62.500000 C 24.700001 62.500000 14.000000 51.799999 14.000000 38.500000 C 14.000000 25.200001 24.700001 14.500000 38.000000 14.500000 C 51.299999 14.500000 62.000000 25.200001 62.000000 38.500000 C 62.000000 51.700001 51.200001 62.500000 38.000000 62.500000 Z"/><path d=" M 59.500000 37.000000 L 53.799999 37.000000 C 53.299999 37.099998 52.799999 37.400002 52.500000 37.799999 L 48.700001 41.900002 L 45.500000 30.799999 C 45.200001 29.900000 44.200001 29.299999 43.299999 29.600000 C 42.799999 29.799999 42.299999 30.100000 42.099998 30.700001 L 36.099998 46.599998 L 32.000000 24.600000 C 31.799999 23.600000 30.900000 23.000000 30.000000 23.200001 C 29.400000 23.299999 28.900000 23.799999 28.600000 24.400000 L 24.299999 37.000000 L 16.500000 37.000000 L 16.500000 41.000000 L 25.600000 41.000000 C 26.400000 40.900002 27.100000 40.299999 27.299999 39.500000 L 29.799999 31.900000 L 33.799999 53.400002 C 33.900002 54.200001 34.599998 54.799999 35.400002 54.799999 L 35.599998 54.799999 C 36.299999 54.799999 37.000000 54.400002 37.299999 53.700001 L 43.700001 36.900002 L 46.299999 45.900002 C 46.599998 46.799999 47.500000 47.400002 48.500000 47.099998 C 48.799999 47.000000 49.099998 46.799999 49.299999 46.599998 L 54.700001 41.000000 L 59.599998 41.000000 L 59.599998 37.000000 Z"/></svg>